# xmcd
#
# Track frame offsets: 
#        150
#        12708
#        26900
#        38949
#        52898
#        66715
#        79323
#        93406
#        106226
#        118789
#        131496
#        146531
#        159192
#        172926
#        184704
#        197267
#        209560
#        221467
#
# Disc length: 3098 seconds
#
# Revision: 0
# Processed by: cddbd v1.5.2PL0 Copyright (c) Steve Scherf et al.
# Submitted via: ExactAudioCopy v0.99pb5
#
DISCID=010c1812
DTITLE=Various Artist - Smithsonian Collection of Classic Country Music Disc 
DTITLE=03
DYEAR=1981
DGENRE=Country
TTITLE0=Gene Autry - Silver Haired Daddy of Mine
TTITLE1=Sons of the Pioneers - Tumbling Tumbleweeds
TTITLE2=Sons of the Pioneers - Cool Water
TTITLE3=Patsy Montana - I Want To Be a Cowboy's Sweetheart
TTITLE4=Montana Slim (Wilf Carter) - My Swiss Moonlight Lullaby
TTITLE5=Stuart Hamblin - Texas Plains
TTITLE6=W. Lee O'Daniel and His Light Crust Doughboys - My Mary
TTITLE7=Shelton Brothers - Deep Elem Blues
TTITLE8=Jimmie Davis - Nobody's Darlin' But Mine
TTITLE9=Bill Boyd - Under the Double Eagle
TTITLE10=Milton Brown and His Musical Brownies - St. Louis Blues
TTITLE11=Bob Wills and His Texas Playboys - Steel Guitar Rag
TTITLE12=Leo Soileau - La valse de Geydan
TTITLE13=Woody Guthrie - Do Re Mi
TTITLE14=Chuck Wagon Gang - Jesus Hold My Hand
TTITLE15=Cliff Bruner's Texas Wanderers - It Makes No Difference Now
TTITLE16=Bob Wills and His Texas Playboys - New San Antonio Rose
TTITLE17=Gene Autry - You Are My Sunshine
EXTD=
EXTT0=
EXTT1=
EXTT2=
EXTT3=
EXTT4=
EXTT5=
EXTT6=
EXTT7=
EXTT8=
EXTT9=
EXTT10=
EXTT11=
EXTT12=
EXTT13=
EXTT14=
EXTT15=
EXTT16=
EXTT17=
PLAYORDER=
